<?xml version="1.0" standalone="no"?>
<!DOCTYPE svg PUBLIC "-//W3C//DTD SVG 20010904//EN"
 "http://www.w3.org/TR/2001/REC-SVG-20010904/DTD/svg10.dtd">
<svg version="1.0" xmlns="http://www.w3.org/2000/svg"
 width="512.000000pt" height="512.000000pt" viewBox="0 0 512.000000 512.000000"
 preserveAspectRatio="xMidYMid meet">
<metadata>
Created by potrace 1.14, written by Peter Selinger 2001-2017
</metadata>
<g transform="translate(0.000000,512.000000) scale(0.100000,-0.100000)"
fill="#000000" stroke="none">
<path d="M4002 4977 c-40 -12 -93 -62 -119 -109 -15 -29 -18 -64 -19 -311 -1
-153 -5 -281 -8 -285 -4 -4 -130 -7 -279 -8 -300 -1 -312 -3 -375 -64 -51 -48
-64 -90 -64 -202 0 -79 4 -105 22 -142 27 -56 83 -102 141 -115 24 -5 158 -10
298 -10 139 0 256 -2 258 -5 3 -3 6 -130 7 -283 1 -266 2 -280 24 -320 23 -45
68 -84 117 -103 17 -7 73 -12 125 -12 108 0 149 12 199 61 61 60 64 77 65 378
1 149 4 275 8 278 3 4 131 7 285 8 l278 2 45 27 c89 52 114 113 108 261 -3 89
-7 107 -29 139 -29 43 -64 73 -105 89 -20 8 -120 12 -309 13 l-280 1 -1 280
c-1 312 -3 324 -68 385 -20 19 -51 40 -69 47 -40 14 -210 15 -255 0z"/>
<path d="M1568 3635 c-1 -2 -32 -6 -68 -9 -90 -7 -247 -42 -349 -78 -588 -208
-1017 -725 -1126 -1358 -19 -116 -22 -163 -20 -330 2 -107 6 -208 9 -225 3
-16 8 -43 11 -60 62 -367 245 -714 514 -974 221 -213 465 -348 766 -423 128
-32 211 -41 365 -42 148 -1 229 7 345 34 214 50 396 148 560 301 50 47 65 57
66 43 1 -11 1 -78 1 -151 l1 -131 496 0 496 0 0 1652 0 1653 -496 0 -496 1 0
-137 c-1 -75 -2 -142 -2 -150 -1 -7 -31 15 -69 50 -176 166 -379 268 -628 314
-76 15 -366 30 -376 20z m456 -934 c321 -85 563 -345 625 -671 15 -82 6 -272
-17 -360 -96 -362 -417 -615 -791 -624 -386 -10 -711 222 -831 594 -26 82 -33
133 -33 255 1 307 167 583 443 733 67 37 191 79 256 88 27 3 51 8 53 9 12 12
227 -6 295 -24z"/>
</g>
</svg>
