<?xml version="1.0" encoding="utf-8"?>
<!-- Generator: Adobe Illustrator 24.3.0, SVG Export Plug-In . SVG Version: 6.00 Build 0)  -->
<svg version="1.1" id="Layer_1" xmlns="http://www.w3.org/2000/svg" xmlns:xlink="http://www.w3.org/1999/xlink" x="0px" y="0px"
	 viewBox="0 0 64 64" style="enable-background:new 0 0 64 64;" xml:space="preserve">
<style type="text/css">
	.st0{opacity:0.2;}
	.st1{fill:#FFFFFF;}
	.st2{opacity:0.12;}
	.st3{fill:url(#SVGID_1_);}
	.st4{fill:url(#SVGID_2_);}
	.st5{fill:url(#SVGID_3_);}
	.st6{fill:url(#SVGID_4_);}
	.st7{fill:url(#SVGID_5_);}
	.st8{fill:none;}
</style>
<g>
	<g id="Icons_-_Color">
		<g id="Desktop_-_Full_Bleed">
			<g class="st0">
				<path class="st1" d="M19.9,49c-1.8,0-3.2,1.5-3.2,3.3c0,1.1,0.6,2.2,1.6,2.7l11.4,6.4c0.9,0.5,2,0.8,3.1,0.8
					c0.6,0,1.2-0.1,1.7-0.2l17.1-4.9c2.6-0.8,4.4-3.1,4.4-5.9V49H19.9z"/>
			</g>
			<g class="st2">
				<path class="st1" d="M19.9,49c-1.8,0-3.2,1.5-3.2,3.3c0,1.1,0.6,2.2,1.6,2.7l11.4,6.4c0.9,0.5,2,0.8,3.1,0.8
					c0.6,0,1.2-0.1,1.7-0.2l17.1-4.9c2.6-0.8,4.4-3.1,4.4-5.9V49H19.9z"/>
			</g>
			
				<linearGradient id="SVGID_1_" gradientUnits="userSpaceOnUse" x1="45.205" y1="67.42" x2="45.205" y2="8.2" gradientTransform="matrix(1 0 0 -1 0 66)">
				<stop  offset="0" style="stop-color:#BABABA"/>
				<stop  offset="0.17" style="stop-color:#969696"/>
				<stop  offset="0.31" style="stop-color:#7A7A7A"/>
				<stop  offset="0.43" style="stop-color:#6B6B6B"/>
				<stop  offset="0.5" style="stop-color:#636363"/>
			</linearGradient>
			<path class="st3" d="M34.4,2L39,12.5V49l-4.5,13l17.1-4.9c2.6-0.8,4.4-3.1,4.4-5.9V12.7c0-2.7-1.8-5.1-4.4-5.9L34.4,2z"/>
			
				<linearGradient id="SVGID_2_" gradientUnits="userSpaceOnUse" x1="34.5242" y1="65.327" x2="3.1642" y2="20.547" gradientTransform="matrix(1 0 0 -1 0 66)">
				<stop  offset="0" style="stop-color:#292929"/>
				<stop  offset="0.6" style="stop-color:#545454"/>
				<stop  offset="0.73" style="stop-color:#666666"/>
				<stop  offset="0.85" style="stop-color:#737373"/>
				<stop  offset="0.94" style="stop-color:#7A7A7A"/>
				<stop  offset="1" style="stop-color:#808080"/>
			</linearGradient>
			<path class="st4" d="M12.7,48.6l5-2.7c1.4-0.8,2.3-2.2,2.3-3.8V22.4c0-1.8,1.1-3.5,2.9-4.1L39,12.5V8.1c0-2.8-1.9-5.3-4.6-6.1
				c-0.6-0.2-1.1-0.2-1.7-0.2l0,0c-1.1,0-2.2,0.3-3.1,0.8L11.1,13.1C9.2,14.2,8,16.2,8,18.4v27.4c0,1.8,1.4,3.2,3.2,3.2
				C11.7,49,12.3,48.9,12.7,48.6z"/>
			
				<linearGradient id="SVGID_3_" gradientUnits="userSpaceOnUse" x1="18.5" y1="10.375" x2="59.44" y2="10.375" gradientTransform="matrix(1 0 0 -1 0 66)">
				<stop  offset="0" style="stop-color:#696969"/>
				<stop  offset="0.6" style="stop-color:#363636"/>
			</linearGradient>
			<path class="st5" d="M39,49H19.9c-1.8,0-3.2,1.5-3.2,3.3c0,1.1,0.6,2.2,1.6,2.7l11.4,6.4c0.9,0.5,2,0.8,3.1,0.8l0,0
				c0.6,0,1.2-0.1,1.7-0.2c2.7-0.8,4.5-3.2,4.5-6V49z"/>
			
				<linearGradient id="SVGID_4_" gradientUnits="userSpaceOnUse" x1="35.1646" y1="66.2368" x2="28.5246" y2="56.7568" gradientTransform="matrix(1 0 0 -1 0 66)">
				<stop  offset="0" style="stop-color:#000000;stop-opacity:0.4"/>
				<stop  offset="1" style="stop-color:#000000;stop-opacity:0"/>
			</linearGradient>
			<path class="st6" d="M12.7,48.6l5-2.7c1.4-0.8,2.3-2.2,2.3-3.8V22.4c0-1.8,1.1-3.5,2.9-4.1L39,12.5V8.1c0-2.8-1.9-5.3-4.6-6.1
				c-0.6-0.2-1.1-0.2-1.7-0.2l0,0c-1.1,0-2.2,0.3-3.1,0.8L11.1,13.1C9.2,14.2,8,16.2,8,18.4v27.4c0,1.8,1.4,3.2,3.2,3.2
				C11.7,49,12.3,48.9,12.7,48.6z"/>
			
				<linearGradient id="SVGID_5_" gradientUnits="userSpaceOnUse" x1="46.3202" y1="9.4521" x2="27.9902" y2="11.0521" gradientTransform="matrix(1 0 0 -1 0 66)">
				<stop  offset="0" style="stop-color:#000000;stop-opacity:0.4"/>
				<stop  offset="1" style="stop-color:#000000;stop-opacity:0"/>
			</linearGradient>
			<path class="st7" d="M39,49H19.9c-1.8,0-3.2,1.5-3.2,3.3c0,1.1,0.6,2.2,1.6,2.7l11.4,6.4c0.9,0.5,2,0.8,3.1,0.8l0,0
				c0.6,0,1.2-0.1,1.7-0.2c2.7-0.8,4.5-3.2,4.5-6V49z"/>
			<rect class="st8" width="64" height="64"/>
		</g>
	</g>
</g>
</svg>
