<?xml version="1.0" encoding="utf-8"?>
<!-- Generator: Adobe Illustrator 24.3.0, SVG Export Plug-In . SVG Version: 6.00 Build 0)  -->
<svg version="1.1" id="Layer_1" xmlns="http://www.w3.org/2000/svg" xmlns:xlink="http://www.w3.org/1999/xlink" x="0px" y="0px"
	 viewBox="0 0 48 48" style="enable-background:new 0 0 48 48;" xml:space="preserve">
<style type="text/css">
	.st0{fill:#666666;}
	.st1{fill-rule:evenodd;clip-rule:evenodd;fill:#FFFFFF;}
</style>
<path class="st0" d="M24,48c13.3,0,24-10.7,24-24S37.3,0,24,0S0,10.7,0,24S10.7,48,24,48z"/>
<path class="st1" d="M38.1,15.9l-6.8,4.9v6.3l6.8,4.9c0.5,0.4,1,0.5,1-0.5V16.5C39.1,15.6,38.7,15.5,38.1,15.9z M8.3,27.8V16.5
	c0-0.5,0.4-0.8,0.8-0.8h16.4c2.6,0,4.6,2.1,4.6,4.6v11.3c0,0.5-0.4,0.8-0.8,0.8H13C10.4,32.3,8.3,30.3,8.3,27.8z"/>
</svg>
