<?xml version="1.0" encoding="utf-8"?>
<!-- Generator: Adobe Illustrator 24.3.0, SVG Export Plug-In . SVG Version: 6.00 Build 0)  -->
<svg version="1.1" id="Layer_1" xmlns="http://www.w3.org/2000/svg" xmlns:xlink="http://www.w3.org/1999/xlink" x="0px" y="0px"
	 viewBox="0 0 50 40.2" style="enable-background:new 0 0 50 40.2;" xml:space="preserve">
<style type="text/css">
	.st0{fill:#1E8956;}
</style>
<path id="icon_formation" class="st0" d="M42.3,15.4L42.3,15.4c1-0.4,1.6-1.4,1.6-2.5s-0.7-1.9-1.6-2.3L24.6,3.9
	c-0.7-0.3-1.4-0.3-2.1,0l-17.8,7l0,0c-0.9,0.4-1.6,1.4-1.6,2.5s0.7,1.9,1.6,2.3l6.5,2.6v6.3c0.1,1.3,0.7,2.5,1.7,3.4
	c2.1,2.1,5.7,3.1,10.8,3.1c5,0,8.7-1,10.8-3.1c0.9-0.9,1.5-2.1,1.7-3.4v-6.6h-0.1l3.4-1.4v8.9c-0.9,0.2-1.4,0.9-1.4,1.9
	c0,0.5,0.2,0.9,0.5,1.2c-0.2,0.2-0.3,0.4-0.3,0.7l-0.8,6.2c0,0.3,0.1,0.6,0.3,0.9c0.2,0.2,0.5,0.4,0.9,0.4h2.8
	c0.3,0,0.6-0.1,0.8-0.4c0.2-0.2,0.3-0.6,0.3-0.9L42,29.2c0-0.3-0.1-0.5-0.3-0.7c0.3-0.4,0.5-0.8,0.5-1.2c0-0.9-0.6-1.6-1.4-1.9v-9.3
	L42.3,15.4z M41.5,35.5C41.4,35.5,41.4,35.5,41.5,35.5h-2.8h-0.1c0,0,0,0,0-0.1l0.8-6.2c0,0,0-0.1,0.1-0.1h1.4c0,0,0.1,0,0.1,0.1
	L41.5,35.5C41.5,35.4,41.5,35.4,41.5,35.5L41.5,35.5z M40.9,27.3c0,0.5-0.4,0.9-0.9,0.9c-0.5,0-0.9-0.4-0.9-0.9
	c0-0.5,0.4-0.9,0.9-0.9S40.9,26.8,40.9,27.3z M4.5,13.3c0-0.6,0.3-1,0.8-1.2l17.8-7l0,0c0.4-0.2,0.7-0.2,1,0l17.7,6.7
	c0.5,0.2,0.8,0.6,0.8,1.1c0,0.6-0.3,1-0.8,1.2L39,15.3l-12.1-2.1c0-0.1,0-0.2,0-0.2c0-1.1-1.3-1.9-3.2-1.9c-1.9,0-3.2,0.9-3.2,1.9
	s1.3,1.9,3.2,1.9c0.9,0,1.9-0.2,2.7-0.8l0,0l10.9,1.9l-13.1,5.4l0,0c-0.4,0.2-0.8,0.2-1,0l-17.9-7C4.7,14.3,4.5,13.8,4.5,13.3z
	 M26,13.1c0,0.4-0.9,0.9-2.2,0.9s-2.2-0.6-2.2-0.9c0-0.4,0.9-0.9,2.2-0.9S26,12.7,26,13.1L26,13.1z M34.9,24.5
	c-0.1,0.9-0.6,1.9-1.3,2.6c-2.3,2.2-6.5,2.7-9.8,2.7s-7.5-0.5-9.8-2.7c-0.8-0.7-1.2-1.5-1.3-2.6v-5.8l10,3.9
	c0.3,0.1,0.7,0.2,0.9,0.2c0.4,0,0.8-0.1,1-0.2l10.1-4.2V24.5z"/>
</svg>
